<svg width="366" height="469" viewBox="0 0 366 469" fill="none" xmlns="http://www.w3.org/2000/svg">
<path opacity="0.07" d="M330.355 223.801C343.845 212.217 352.147 190.658 352.147 161.567C352.147 101.825 317.176 33.149 274.111 8.73307C230.994 -15.7348 196.646 12.9409 197.061 73.1497C197.269 101.773 205.466 132.475 218.697 159.177C228.919 179.749 235.612 202.71 237.843 224.061C238.725 233.204 244.173 242.659 250.451 246.295L298.601 274.088C304.931 277.776 310.327 274.452 311.313 266.399C313.492 247.646 320.081 232.685 330.355 223.801Z" fill="url(#paint0_linear_34_13)"/>
<path opacity="0.07" d="M310.379 322.504V309.725C310.379 302.868 306.435 295.127 301.506 292.166L247.442 260.893C242.512 258.036 238.569 261.256 238.569 268.114V280.893C238.569 291.179 243.965 302.608 251.022 308.218L298.03 335.388C304.983 338.037 310.379 332.686 310.379 322.504Z" fill="url(#paint1_linear_34_13)"/>
<path opacity="0.4" d="M304.36 244.477C317.85 232.892 326.152 211.334 326.152 182.242C326.152 122.501 291.181 53.8247 248.116 29.4087C204.948 4.9408 170.651 33.6166 171.066 93.8253C171.274 122.449 179.472 153.151 192.703 179.853C202.924 200.424 209.617 223.386 211.848 244.737C212.73 253.88 218.178 263.334 224.456 266.971L272.606 294.763C278.936 298.452 284.332 295.127 285.318 287.075C287.549 268.322 294.139 253.308 304.36 244.477Z" fill="url(#paint2_linear_34_13)"/>
<path opacity="0.4" d="M284.436 343.18V330.4C284.436 323.543 280.493 315.803 275.563 312.842L221.499 281.569C216.57 278.711 212.626 281.932 212.626 288.789V301.569C212.626 311.855 218.023 323.283 225.079 328.894L272.087 356.063C279.04 358.713 284.436 353.362 284.436 343.18Z" fill="url(#paint3_linear_34_13)"/>
<path opacity="0.3" d="M170.859 347.647L16.4478 258.399L16.4997 338.972L157.265 420.324L170.911 440.532L170.859 347.647Z" fill="url(#paint4_linear_34_13)"/>
<path d="M0 289.828V267.958L58.3192 301.621V323.491L0 289.828Z" fill="#F2994A"/>
<path opacity="0.15" d="M131.166 344.323L97.3371 324.79V331.855L131.166 351.388V344.323Z" fill="white"/>
<path opacity="0.15" d="M131.166 358.505L65.9464 320.842V327.907L131.166 365.57V358.505Z" fill="white"/>
<path opacity="0.15" d="M131.166 372.635L52.1449 326.972V334.037L131.166 379.7V372.635Z" fill="white"/>
<path d="M139.52 356.531C139.52 363.18 143.463 370.817 148.289 373.622C153.114 376.427 157.057 373.31 157.057 366.661C157.057 360.011 153.114 352.375 148.289 349.57C143.411 346.764 139.52 349.881 139.52 356.531Z" fill="#F2994A"/>
<path opacity="0.3" d="M182.896 299.179L337.255 388.427L337.307 469L196.542 387.648L182.948 392.116L182.896 299.179Z" fill="url(#paint5_linear_34_13)"/>
<path d="M292.374 402.609V380.739L350.642 414.402V436.272L292.374 402.609Z" fill="#F2C94C"/>
<path opacity="0.15" d="M222.589 341.777L256.418 361.31V368.375L222.589 348.842V341.777Z" fill="white"/>
<path opacity="0.15" d="M222.589 355.907L283.658 391.181V398.246L222.589 363.024V355.907Z" fill="white"/>
<path opacity="0.15" d="M222.589 370.089L301.61 415.752V422.817L222.589 377.154V370.089Z" fill="white"/>
<path d="M214.235 344.323C214.235 350.972 210.292 354.089 205.466 351.284C200.641 348.479 196.698 340.842 196.698 334.193C196.698 327.543 200.641 324.426 205.466 327.232C210.344 330.037 214.235 337.673 214.235 344.323Z" fill="#F2C94C"/>
<path opacity="0.15" d="M355.156 292.426L359.047 301.049L326.256 308.686L360.344 356.219L356.453 360.323L314.581 301.881L355.156 292.426Z" fill="white"/>
<path d="M366 302.088C366 308.79 362.057 311.959 357.231 309.205C352.406 306.4 348.463 298.712 348.463 291.958C348.463 285.257 352.406 282.088 357.231 284.841C362.057 287.647 366 295.387 366 302.088Z" fill="#F2994A"/>
<path d="M366 361.622C366 368.323 362.057 371.492 357.231 368.739C352.406 365.933 348.463 358.245 348.463 351.492C348.463 344.79 352.406 341.621 357.231 344.375C362.057 347.232 366 354.92 366 361.622Z" fill="#F2994A"/>
<path d="M328.591 309.465C328.591 316.166 324.647 319.335 319.822 316.582C314.997 313.777 311.053 306.088 311.053 299.335C311.053 292.634 314.997 289.465 319.822 292.218C324.647 295.023 328.591 302.764 328.591 309.465Z" fill="#F2C94C"/>
<path opacity="0.3" d="M83.9505 131.54L170.911 181.775V343.076L83.9505 292.841V131.54Z" fill="url(#paint6_linear_34_13)"/>
<path opacity="0.15" d="M92.5116 227.282L162.349 267.646V274.711L92.5116 234.347V227.282Z" fill="white"/>
<path opacity="0.15" d="M97.3891 243.906L157.421 278.607V285.672L97.3891 250.971V243.906Z" fill="white"/>
<path d="M122.761 272.737L62.2625 237.776V255.802L122.761 290.763V272.737Z" fill="#F2C94C"/>
<path d="M137.341 194.97C137.341 202.762 132.827 206.45 127.275 203.23C121.723 199.957 117.209 191.022 117.209 183.177C117.209 175.385 121.723 171.697 127.275 174.917C132.827 178.19 137.341 187.177 137.341 194.97Z" fill="#F2C94C"/>
<path d="M127.223 209.515C118.247 204.269 110.827 209.204 109.53 220.477C109.323 222.451 110.775 225.048 112.591 226.087L141.855 243.23C143.671 244.269 145.124 243.438 144.916 241.204C143.671 228.321 136.199 214.762 127.223 209.515Z" fill="#F2C94C"/>
<path opacity="0.2" d="M211.693 459.337C180.302 418.921 203.028 404.272 211.693 427.96C220.357 414.35 243.083 455.182 211.693 459.337Z" fill="url(#paint7_linear_34_13)"/>
<defs>
<linearGradient id="paint0_linear_34_13" x1="335.474" y1="76.0159" x2="176.505" y2="220.58" gradientUnits="userSpaceOnUse">
<stop stop-color="white"/>
<stop offset="1" stop-color="white" stop-opacity="0"/>
</linearGradient>
<linearGradient id="paint1_linear_34_13" x1="417.649" y1="166.353" x2="258.68" y2="310.917" gradientUnits="userSpaceOnUse">
<stop stop-color="white"/>
<stop offset="1" stop-color="white" stop-opacity="0"/>
</linearGradient>
<linearGradient id="paint2_linear_34_13" x1="309.521" y1="96.6813" x2="150.553" y2="241.246" gradientUnits="userSpaceOnUse">
<stop stop-color="#20262B"/>
<stop offset="1" stop-color="white" stop-opacity="0"/>
</linearGradient>
<linearGradient id="paint3_linear_34_13" x1="391.696" y1="187.018" x2="232.728" y2="331.582" gradientUnits="userSpaceOnUse">
<stop stop-color="white"/>
<stop offset="1" stop-color="white" stop-opacity="0"/>
</linearGradient>
<linearGradient id="paint4_linear_34_13" x1="137.19" y1="315.375" x2="57.3937" y2="377.777" gradientUnits="userSpaceOnUse">
<stop stop-color="#20262B"/>
<stop offset="1" stop-color="white" stop-opacity="0"/>
</linearGradient>
<linearGradient id="paint5_linear_34_13" x1="249.2" y1="301.804" x2="269.208" y2="463.894" gradientUnits="userSpaceOnUse">
<stop stop-color="#20262B"/>
<stop offset="1" stop-color="white" stop-opacity="0"/>
</linearGradient>
<linearGradient id="paint6_linear_34_13" x1="180.209" y1="145.757" x2="102.879" y2="279.567" gradientUnits="userSpaceOnUse">
<stop stop-color="#20262B"/>
<stop offset="1" stop-color="white" stop-opacity="0"/>
</linearGradient>
<linearGradient id="paint7_linear_34_13" x1="218.32" y1="429.519" x2="195.07" y2="449.579" gradientUnits="userSpaceOnUse">
<stop stop-color="white"/>
<stop offset="1" stop-color="white" stop-opacity="0"/>
</linearGradient>
</defs>
</svg>
